<mxfile host="app.diagrams.net" agent="Mozilla/5.0 (Windows NT 10.0; Win64; x64) AppleWebKit/537.36 (KHTML, like Gecko) Chrome/134.0.0.0 Safari/537.36 Edg/134.0.0.0" version="26.0.16">
  <diagram name="第 1 页" id="l-kBFNDlmHL-Ld6gbIW4">
    <mxGraphModel dx="1213" dy="768" grid="1" gridSize="10" guides="1" tooltips="1" connect="1" arrows="1" fold="1" page="1" pageScale="1" pageWidth="1169" pageHeight="827" math="0" shadow="0">
      <root>
        <mxCell id="0" />
        <mxCell id="1" parent="0" />
        <mxCell id="-8rV1Xqh0MRCDpaFT-4q-1" value="" style="rounded=1;whiteSpace=wrap;html=1;fillColor=#f5f5f5;strokeColor=none;fontColor=#333333;strokeWidth=0;movable=0;resizable=0;rotatable=0;deletable=0;editable=0;locked=1;connectable=0;" vertex="1" parent="1">
          <mxGeometry x="110" y="110" width="920" height="560" as="geometry" />
        </mxCell>
        <mxCell id="-8rV1Xqh0MRCDpaFT-4q-2" value="" style="shape=image;verticalLabelPosition=bottom;labelBackgroundColor=default;verticalAlign=top;aspect=fixed;imageAspect=0;image=data:image/png,iVBORw0KGgoAAAANSUhEUgAAAMgAAADICAYAAACtWK6eAAAAAXNSR0IArs4c6QAADWZJREFUeF7tnVFy1DgQhiVvSHEIyA5PJKdgcpKQk5CcJHAShlMEnnCFPcRWYKxFjh0GNjPulmR3S/rnhSoiS62/+3NLsixbk/j3+eT4a+IqUR1DAWvMpmua67P235Zx2WPR29XzVdN175wxb40xfR3WmPev7+6vQ+rL/RqbugOfT45d6jpRH1uBNiSob18+e2utvdnTWuu67vLsnx8btjUZXwBAMnbehOmsgL59cbS2TfNxqs4Q8HKWGIDk7L0p253bnH77fj5VzP/9y8nxzTCsmi7OqHe6Mt0lAIhu/8Ra157e3b+iVDLMHVeUskOZ1jXNeehch9GOaFEAIir//I2f3t2TfBw4d2ydc9dn376/n78nMi2QxOOYFig0pwmUJSowzBcuKcUj/Ba0IECxSUMZAKLBCzPZ4LrunLrqFAFIb/3PQLoqcSkYgMwUnNLVcrKHtzUWkAES/7yElLGk9aG2D0CoSuVTjrW8O3YrBSAlTt7FAHFNQ1pdyScu5S2NWVFKCIgXopgVLjFAqKsr8mFXhwWJASkGEgBSR/xP9nIGQHpIcn/yDkAmQ6eOAjMBkj0kAKSO+J/s5YyAZL0MDEAmQ6eOAlRA/POOn9u1r0JUyfFZCQAJ8XSB11AB8YsrE9viD6rDfT4jLTUAkfaAkvY5gHiT/YtVtutCX44jb6KUlgeASHtASftcQHYg8e+QcHYBjz3O4lkJAFESoNJmhABSAyQARDoylbQfCsgIyc577Nweqc4kAITrzkLLxwCyA8lF4AqX2vdKAEihAc/tViwgY3tfTo79iSghy8Aqn7oDEG4kFVo+FSBenpIgASCFBjy3WykB6Ydch48QmnpWoublKwDCjaRCy6cGJPZZiZan7gCk0IDndmsOQGKXgTU8dQcg3EgqtPxcgMRC4rfMU48umsM1AGQOVTOsc05AUkAidQYXAMkwmOcweW5AHiHZbm+MteuAPog8UAQgAZ4q8ZIlAEnyQHHh0xwBSInRHtCnpQDJDRIAEhBMJV6yJCCjfjEPFJf6FAMAKTHaA/okAYg3MwaSJQ6EACABwVTiJVKAaIcEgJQY7QF9kgSkn5eEb02ZdZMjAAkIphIvkQZk51lJ0Gu8c21NASAlRntAnzQAEvlAMehM4impAMiUQpX8XQsgUZDM8Gk4AFIJAFPd1ARIBCTJ920BkKnIqeTvVEDGb6cvJAv7tJTUh6IDkIU8rb0ZBiCquwJAVLsnX+MAyNO+QwbJN6aTWg5AAEjSgCqtMgACQEqL6aT9ASAAJGlAlVYZAAEgpcV00v4AEACSNKBKqwyAAJDSYjppfwAIAEkaUKVV5j+Io7lP1I/14EGhZi/CttkUoGY4ADKbC1CxZgUAiGbvwDZxBQCIuAtggGYFAIhm78A2cQUAiLgLYIBmBQCIZu/ANnEFAIi4C2CAZgUAiGbvwDZxBQCIuAtggGYFAIhm78A2cQUAiLgLYIBmBQCIZu/ANnEFAIi4C2CAZgUAiGbvwDZxBQCIuAtggGYFAIhm78A2cQUAiLgLYIBmBQCIZu/ANnEFAIi4C2CAZgUAiGbvwDZxBQCIuAtggGYFAIhm78A2cQUAiLgLYIBmBQCIZu/ANnEFAIi4C2CAZgUAiGbvwDZxBQCIuAtggGYFAIhm78A2cQUAiLgLYIBmBQCIZu/ANnEFAIi4C2CAZgUAiGbvwDZxBQCIuAtggGYFAIhm78A2cQUAiLgLYIBmBQCIZu/ANnEFAIi4C2CAZgUAiGbvwDZxBcQAoTYsrhAMgAICClgAIqA6msxGAQCSjatgqIQCAERCdbSZjQIAJBtXwVAJBQCIhOpoMxsFAEg2roKhEgoAEAnV0WY2CgCQbFwFQyUUACASqqPNbBQAINm4CoZKKABAJFRHm9koAECycRUMlVBAEpDWNc35bJ3+8WNlrF35+htr/3bOrY2167nac03zKrru321+4+tzzvl+zGb3Pptd152bo6M2uk+JKrBd9zVRVaxq5ABxbnP67ft8gDwhw+3q+QMwXXfhjLliKXW4cHt6dx8PyIE2vO1N171zxrxNaPfeqjzwZ+2/agCR2lRbFSC70dDDst2urbXvjDE9OBG/2QEZbRtAuVgiIwIQY6oF5H8BF5dRFgPkT8ht131MAPj/7g3IIA+SVA/ILigRwSYCiLf9MaPEAQ5A9gwfAMiOMD7YAiERA2Q0/8vJsZ+fJJtXIYMggzx5zwiERByQMZsEAo4MggxCn4IPkHCWFVUA8gjJdnsTuzSMDJJJBrl9cbS2TXNDD++hY8ZsOuc+Gefas39+bLjX37589tZaS22XBMhOdtpvjnOttbZfXu267kOQ7Q9DRQ7gwRnk88lxVDsMv8SuNDKa+lVU/RyEGaj7RGitMe9f391fU1Xqg5l+J6YB8gC7X3Xi/Lztm65prjnLrrG6UTOI1PMJjoAxZWsBZNSof3pPDbQhe1ECek5AHm3nQv7l5Pgm9MEiAMlliMUb6lBuFqRgHisi3iFJdTKAO9QPUluxk3YAUi8gZrgTX1Jo+vzy2UfChJcUtIkA8WaTM2HAgkMvCwCpGJA+ALrunDIBJgb10oD4XYzkvWxEyH+7XwCQygGhBhjxDrw8IA87fS/Pvn1/P5UJiZADkCeErG2SvisBKaj9BYR5CKmukECdCH7SUIsIOQABIL8rcHp3b6fuvgMgfq3/0Dq8FCB+PnVFWb7mrmhhiFX7EIsxDyGM4cUA8RN2yrso3OwFQAAIeQyvHBDyggOhH48JFYAAEM5SptohlncjY5hF3vELQACIKWEO8vDQgrbky9l+AkBqB4QYVMpXscYhUfJ5CACpHBDW0/ST45/vIh38JQ9QyurabhlKQHOWeyn1EW8e3K6oKl/rcxBSQHtPEYclpPq4K0mcSKHsDAAgHEUrziCUYBqlJK78ZAEI546PDFIpINTtGY+ATA+vfNF8AKFtviSv8PHvyfQrCDsY6JUFlqxmiEVdCt3VkfH0WR4Q4r4sYkYEIEMg6Ack4pVbf2f3/eya5gP1JakREM54XUUGIQJChZ46xAq8MZMuQwZZ+OhRkleGQtQ77VA8mwwCQDhRgIPjnlSLGkQ7FwMQXtyRSiODKMwgAXDomKRjiEWCjltI/RyE26GY8hGnE2aTQYZjeiaP0MEcJJNl3piAp167c/bWZODsqVMeEOIrxKkBGT8pQdWaUy72bC9OW/vKVp1BEh78LA8I8Xse1HE9NYNQ60sRrBJ1VAfIDhT+QzShGeNPX2UBCGfpGoBkMsQKTuHLfoJNHBDK1n3OXjAAkgsg6Q+OmyNTiwJC3ZlM3HjZ6wNAAEhKUKQBoR7cgDcKmV5XPwfh3PWYfU9ZXBQQ6u5kzu4AZBBkkDIAIb4ZyZmgY4j1KzSQQdJgIpZBqNv3uTsEkEGQQdKg8VCLGCCU1StvIPUB4SgKAAEg2QNCnXuEzOMACADJGxDi3MN3kju8whwEc5CUcEgMsUhDOm8Yd3KOIdbvoYFJehpUSAHLeZK91yxG5ujnHsR30P9sD0MsDLHSoLHgJJ37Xn3E9n08SR+iAxkkDSbzZhDnNu6vvy4579XHZitkEGSQNGikzyD9QRN+f5X/l/Ltj6c6wl3WxRDr6XBABkmDCS2DrJ7v3V7PyQ5TJofOO3brRQZBBpmKM87fSYBwKgwp269Ybbc3hK/yTlYPQADIZJAwCogDEjvnwBALQyxGvLOLigISs1q1r6fIIMggbAoOXCACSMohFTIIMkhKIP6sa1FA+ozh3DrFXAMZ5HBYYBUrDTazA5LwBBZSjzHEwhCLFCjEQkkA6Q+oGA6baKz927c9ZAq/PJzqBBZSlwCINCAkN6EQFJBVQG6IJdtvtA4FSAoAEJJMKFSrAgCkVs+j3yQFAAhJJhSqVQEAUqvn0W+SAgCEJBMK1aoAAKnV8+g3SQEAQpIJhWpVAIDU6nn0m6QAACHJhEK1KgBAavU8+k1SAICQZEKhWhUAILV6Hv0mKQBASDKhUK0K/DysL+2P+llg6rH9aa1DbbkqIBVXcwDylfJyD/WFnFwdCrvTKlAOIMTDkqnftkgrM2rLVYFiAKF+i4J7EHOujoXdaRQoCRDap4aZx/inkRm15KpAMYAwTvhLctBBrg6H3TwFygHEnw/bdX6iPvnzJ5i/vru/nCyIAtUrUAwg3pOM08Vb1zTnKU82rz6SChWgKEA4X1VFFik0ohN3qyxAGMMsryNWtBJHU4HVFQWI9w91uXfwZTtkkusCfYsuJVCgOEACPj8MSBIEUqlVFAdIQBbpfeuHW13TfMDEvdRQD+tXkYAEZJFRPWSTsDgq9qoiAfHe4qxoPeHd1jjXWms3Xdd9MkdHLTJLsQwc7FixgAxDLdr2kzp9j14nVCD1axTJt7vv6ytzVSuhZKiqJgWyBWTO7+nVFADo62EFsgWkn4+snq+arrtwxlzB0VBgDgWyBmQUZI7PFs8hNurMT4EiAEmwupWf52DxIgoUAwiGXIvES3WNFAXI6D3MTaqL49k6XCQgu6CY7XZtjbkw1q5nUxEVF6tA0YDseq3/Zvh2u26sfeP/3zm3MtYu/r3wYiOp0I6lBuQ/DMJ5xc6a3EUAAAAASUVORK5CYII=;" vertex="1" parent="1">
          <mxGeometry x="185" y="150" width="50" height="50" as="geometry" />
        </mxCell>
        <mxCell id="-8rV1Xqh0MRCDpaFT-4q-17" value="" style="shape=image;verticalLabelPosition=bottom;labelBackgroundColor=default;verticalAlign=top;aspect=fixed;imageAspect=0;image=data:image/png,iVBORw0KGgoAAAANSUhEUgAAAMgAAADICAYAAACtWK6eAAAAAXNSR0IArs4c6QAADflJREFUeF7tnU9sVNcVh99MjGOKi/IHVSUYbAjBGLUBqUJCTdVgRSKNotJISaQqi0AWbCq1VF20C6oGqnTRTdV00UVZkKRRVSkgJVAqQlXhRE5lqRuXBdgpgbExgbYQCJji2OOZ8sBuBuOZe+6Z9+6dO+/zds65f37nfD7z7n33Ti7iDwVQoKoCObRBARSorgCAkB0oUEMBACE9UABAyAEU0ClABdHphldGFACQjASaaeoUABCdbnhlRAEAyUigmaZOAQDR6YZXRhQAkIwEmmnqFAAQnW54ZUSBhgLkZFdbV1QsduXz+cczon/q0yyVyyNRuVzoGSv2pd5ZE3bQEIDEYORLpW3lKNrdhBo3zJRuBnt39+jknoYZUAAD8Q5IDEeuVDoTgFbNMsRCOZ/v7SlMFJplQmnOwzsgQ8sXHItyuc1pTpK271IASIRJ4RWQk8sXbM/lcvuEY8UsWQWARKCnV0CGV7S+zHOHIErpmQCJQVvfgOwrR9H29OJPywIFgKSGSF4B4flDkL5uTICkis4A4iYBQ+gFSOaJEoCEkLruxggkc7QGEHfJF0pPQFIRKQAJJW3djhNIZvQGELeJF1JvQBJFEYCElLLux5p5SIIEpG3do/2tKx8pus8X9z1ee/ed1eViscN9z//vMdOQBAnIsr1vDbZv2brBY9I46/rUhocGpy9fsptruXz71fbk3nHLLCQA4izVdR1pAMlF0WulfH5Pbnp6H5DodJ/1ApD69EvdWwtI9+jkS7eOEgBJXTECkLrkS9+5HkDi0QFJfTECkPr0S927XkCApL4QAUh9+qXunQQgQKIPE4DotXPimRQgQKILF4DodHPmlSQgQGIfNgCx18ypR9KAAIld+ADETi/n1mkAAiTyMAKIXCsvlmkBAiSycAKITCdvVmkCAiTmsAKIWSOvFmkDAiS1wwsgXtPf3LkLQICkehwAxJyjXi1cAQIk84cZQLymv7lzl4AAyd3xABBzjnq1cA0IkNwZbgDxmv7mzn0AAiSfxwVAzDnq1cIXIEByO+wA4jX9zZ37BARIAMScoZ4tfAOSdUioIJ4BMHXfCIBkGRIAMWWo588bBZCsQgIgngEwdd9IgGQREgAxZajnzxsNkKxBAiCeATB134iAZAkSADFlqOfPGxWQrEACIJ4BMHXfyIBkARIAMWWo588bHZBmhwRAPANg6j4EQJoZEgAxZajnz0MBJA1I4ku44zuGfYYAQHyqL+g7JEDSgKRcKvX2jBVv/5yDhz8A8SC6TZehAZI0JDcTdHf36OQeG82StAWQJNVMoa0QAUkUknK5b+3Zqd4UpBU1CSAimfwZhQpIYpAASG6zbfrxE2y1FWuEh9vZEdb9+yQAAiC10l1TQaJyua8cRa/b/uNJyz6fy3WWo2h7FEVd1n0ACIAkDoh1FjawA4AACIDUUABAAARAAGReBYaWLzim+ZliHtIb+CtR0kOjglBBqCBUECqI8j/ryFMb+ydOHP+G0j18NyoIFaRWFp//3gt9Vw8fsN4rCp+MmRkACIDUSubxowcHz+14fkPTJLztRAAEQEw588/u+wZKEzc2meya8nMAARBTYk+OfDR25pvrOkx2Tfk5gACIJLH//cpP3r6899fPSGybygZAAESa0JOnhgYKT36to1wsZqeaAAiASAGJ7abGRqJPD7zZf23/78enPj77laaHBUAAxAaQUG0vvvqL/ku/+rn9fg6AAEioSW8zbgCxUWvGlnexFKIF6gIgisABiEK0QF0ARBE4AFGIFqgLgCgCByAK0QJ1ARBF4ABEIVqgLgCiCByAKEQL1AVAFIEDEIVogboAiCJwAKIQLVAXAFEEDkAUogXqAiCKwAGIQrRAXQBEETgAUYgWqAuAKAIHIArRAnUBEEXgAEQhWqAuAKIIXEiAfHbi+P5rfzn05WrTXLhh4+pFj2+p+rlCHrXL7JmRag3kv9C+5IEdO9eqO1A4AohCtFAAkV6asPjpZ/uW/vYPXq/okd6Ckmtru7Bm+NMJ1Y3rilgDiEK0EACxPAte6B75LFbC/pp/hX7zuQx33luQ9v/gj37Wv2TnLvtDTIqxAohCtBAAsb24zWcVsYQ5cjlWAAGQWwrkWlrG1nx0vSj9L66QrarLhw8vGrM5ow4gZvX5jUKDRrYVJG5u6W9eP7L4O9/9lln+5CyuvPm7i//a9f0lNi0CiFktAEkBkHvuf3Bw9eDHTq8LPb1p1dDU+XNWK1MAAiBmBVIAJG6y441DF1wt+2pvXgQQc3pQQVICZOHGrw+u2H/MSRUZfa538Mbf/2bdF4AAiFmBlACJoqiw8v0TLa2dD6d9C2JhuPNe1bIygJjTgwqSHiCRiypiu7RbOV0AARCzAikC4mLJ13ZpF0DsUoIKkiIgcdNp7lZ/svfVof+88mOrlSsAARA7BVIGZOadp1ReYtQs7QKIXXpQQVIGJK0l3+vvHb0w9uK36wKPZxAzLADiAJAFS5cNrRo4rf4qNN8QtUu7VBAzFJUWAOIAkHjJt+ONQ20Jbhyql3YBBEDsFHADSKJLvpr3w+abJl+xzKlCBXEESFxFkjorYnPmo9b0AARAzAq4AySRJd96NgbnThVAzOlBBXEISBJLvtLjv+bQRxyYEogEIA4Bibuq56xIEku7PKQLqKgwAZCEAGldsfLI5OgZ4yGpes6KSJd229Y92j9x4rjxrDlfscywAEhCgMTJNv7XP7eVJm5sMsmuPCsiWtq9574H9i96rHfJ1cMHjLerAIgpUlEEIAkCsujJrRPnf7DNWEU0b/lKq0f8Fe76uwfbAMSc/BILAEkQkPhOLOFDtPWSr2RpN9+2cOCR4SubpPskVBAzIgCSMCDSZVib5JS2ef+OH779pZ/+8hkAMSe+1AJAEgYkvvbz9GNrjPrbnBWRnvmY2YiMAMQov9gAQBIGJG5OmqCSJV/pdT6VFUnav00VE2dUFUMujlMo2Ew3K1Ymm/SWEcmSr/TMx6oPPowWdHTeigKAKJKxigsVJIUKEjc58tRG0V5ErSVfKWhzV8UABEAG27dstb7mRiObNtkmTw0NnHlivXFPpNZZEenS7sr3T4xV3p6iHbNGH6kPX7GkSlXYNetXrNkpSpd8q1wPJN4YXP2P889Vyg8gimTkK5ZOtHqS7eo7fzyi3TiULu3O96Bfz5h1Kpm9qCBmje6yaPYKEk9YWkXmnhWRLO3ObgzOFRZAFMlIBdGJVm+ySStB5fVA0ut8ZjcGAUQXW4kXq1gprWLNNiveOLz9k2i3bik5teGhwenLl4yLELMbgwAiSXWdDYCkDEjcvLQKxUu+sb3kOp9am3zS/tgoNEMDIA4Ake5nxEu+LR2dE5Kb2is3Bqkg5kTXWgCIA0DiLqQbh5JAml6Xp4JIVJTZAIgjQKQbh5Kwzd0YpIJIVNPZAIgjQOJuhEu+NUcUnxicuzEIILrkl3gBiENApBuHtYYkeQOYr1iS1JfZAIhDQOqtItU2BqkgsmTXWAGIY0CkG4fzDavaxiCAaFJf5gMgjgGRbhzON6xqG4MAIkt2jRWAOAYk7k76jFA5NJtNPWn7Nm1qkqvSh5cVFQpm4WXF+WSRbhxW+tbaGKSCKJJP6EIF8VBB4i5tNg5NG4MAIsx2hRmAeALEZuPQtDEIIIrMF7oAiCdA4m4lG4eSjUEAEWa7wgxAPAIieRZZtvct6/P3PKQrSKjiAiAeAYm7jiEZP/qn8dJ/xy/OHcqSnbs6oijqsg03gNgqVt0eQDwDklwoP28JQJJTFUAAxPgzCUmkG/sgChWzug+ikMrKhQpiJVdNYyqIQUvpG7iah+nkwnhnS+NHDw6e2/G88Uy79N2uJMZJBVGoGEIFid+dKjyxfqDWL0dJ7thVyFOXy6n1S/dPX/nkjgvlKhucuV0+XgRw8gcgCplDAGR2WvHG3tXDB4pzp7n46WdbWlevNV4xqpCnbpdqY27r+Wq7q6tbZycBIIpwhgSIYnq4VCgAIIp0ABCFaIG6AIgicACiEC1QFwBRBA5AFKIF6gIgisABiEK0QF0ARBE4AFGIFqgLgCgCByAK0QJ1ARBF4ABEIVqgLgCiCByAKEQL1AVAFIEDEIVogboAiCJwAKIQLVAXAFEEDkAUogXqAiCKwAGIQrRAXQBEETgAUYgWqAuAKAIHIArRAnUBEEXgAEQhWqAuAKIIHIAoRAvUBUAUgQMQhWiBugCIInAAohAtUBcAUQQOQBSiBeoCIIrAAYhCtEBdAEQROABRiBaoC4AoAqcFpHXFyiP59i+2K7rExZMCU+fPtU9fvmS8zO6u4ZXLfWvPTvV6GnYU5M2KvsSiXw8KAEjOyeXJHkJLl0koACAAkkQeNW0bAAIgTZvcSUwMQAAkiTxq2jYABECaNrmTmBiAAEgSedS0bQAIgDRtcicwsVwUvdY9OvlSAk2pmvC6DzK8ovXlchTtVo0cp0wocDNBd3ePTu7xNVmvgJzsaNmcy+eP+Zo8/Ta+AuVSqbdnrNjna6ReAYknrX3dxJdg9OtQAc/PH/FMvQNysqutK1cqxVWky6H0dNX4ChTK+XxvT2Gi4HOo3gGJJx9Dki+VtvE84jMVGqdv3w/mlUo0BCCzA4pBiYrFriiX68rncp2NEzJG4kKBUqn0ns/njfnm2FCAuAgCfaCAjQIAYqMWtplTAEAyF3ImbKMAgNiohW3mFACQzIWcCdsoACA2amGbOQUAJHMhZ8I2CgCIjVrYZk4BAMlcyJmwjQIAYqMWtplTAEAyF3ImbKMAgNiohW3mFPgfYvSIqsenz3sAAAAASUVORK5CYII=;" vertex="1" parent="1">
          <mxGeometry x="185" y="308" width="60" height="60" as="geometry" />
        </mxCell>
        <mxCell id="-8rV1Xqh0MRCDpaFT-4q-18" value="" style="shape=image;verticalLabelPosition=bottom;labelBackgroundColor=default;verticalAlign=top;aspect=fixed;imageAspect=0;image=data:image/png,iVBORw0KGgoAAAANSUhEUgAAAMgAAADICAYAAACtWK6eAAAAAXNSR0IArs4c6QAAEhBJREFUeF7tnXusHUUdx7+/a0ur1gpF1DZyW6At4REJqNAiRvxDYoE2UYgglvDqQ6ikItqHBNDG2IdGrFBCHzyUh4FEgiVQjRohorQIiiggLY/20oeILQoYkMIdO7d36/awMzu7M7N3z57vSUhb7s5vZj4zn53Hzp4r4IcESMBIQMiGBEjATICCsHeQgIUABWH3IAEKwj5AAuUIcAQpx42pOoQABemQhmY1yxGgIOW4MVWHEKAgHdLQrGY5AgMqiFJqDICJAI4E0A1gPwCDylWFqRpCYCeAlwBsAvBXAL8XkecHqm6VC6KUeg+AGQDOBPDRgao4820rAusA/ATAChF5rcqSVyqIUuoyAPMADKuyksyrMQT0yLJIRJZUVaNKBFFKHQ/gagDHVFUx5tNoAmsBXCwiD8euZXRBlFLn7Vpf3BC7IozfcQQUgKkiclvMmkcVRCk1G8APYlaAsTuewIUicl0sCtEEUUpdAGBVrIIzLgmkCOiR5NYYRKIIopQ6AcBvYxSYMUnAQOBYEflDaDqxBHkUwFGhC8t4JGAhsE5EJoQmFFwQpdTlABaELijjkYADgTki8l2H65wvCSqIUmr4roeAWwG827kEvJAEwhHYvuth4igReSNUyNCCfG2XHEENDlVRxukYAvr5yDWhahtakD8CODpU4RiHBEoQ0Ge3Pl4iXWaSYIIopcYC2BCqYIxDAh4EDhSRzR7p9yQNKci5AG4MUSjGIAFPAmeKyO2eMfqShxTkKgBfCVEoxiABTwILdy3Uv+EZI7ggdwM4NUShGIMEPAncISJneMYILshDAD4WolCMQQKeBO4XkRM9YwQX5HEAh4coFGOQgCeBR0QkyMt4IdcgFMSzVZk8GIGHRSTIbIaCBGsTBqoRAQpSo8ZgUepHgILUr01YohoRoCA1agwWpX4EKEj92oQlqhEBClKjxmBR6keAgtSvTViiGhGgIDVqDBalfgQoSP3ahCWqEQEKUqPGYFHqR4CC1K9NWKIaEaAgNWoMFqV+BDpDkBde3IF/vfyf+uEPUKJDDzkwQBSGMBDoDEGeeuZ5aEma9hk6ZB8ce/RhTatWnepDQerUGkXLQkGKEit8PQUpjKxGCShI9MagINERR8yAgkSEuzs0BYmOOGIGFCQiXAoSHW70DChIdMQcQaIjjpgBBYkIlyNIdLjRM6Ag0RFzBImOOGIGFCQiXI4g0eFGz4CCREfMESQ64ogZUJCIcDmCRIcbPQMKEh0xR5DoiCNmQEEiwuUIEh1u9AwoSHTEHEGiI46YAQWJCJcjSHS40TOgINERcwSJjjhiBhQkItxOGkE2bX4B/3751eg0q85gyJB9wDcKo1LvjBEkKkIGbzIBCtLk1mXdvAlQEG+EDNBkAhSkya3LunkToCDeCBmgyQQoSJNbl3XzJkBBvBEyQJMJUJAmty7r5k2AgngjZIAmE6AgTW5d1s2bAAXxRsgATSZAQZrcuqybNwEK4o2QAZpMgII0tXX1CeZO+wwdMhgfOGBEyGpTkJA06xTroT89idf/+0adihS9LPsOH4YPH35IyHwoSEiadYpFQYK0BgUJgrGGQShIkEahIEEw1jAIBQnSKBQkCMYaBqEgQRqFggTBWMMgFCRIo1CQIBhrGISCBGkUChIEYw2DUJAgjVIvQeZ133Dwpfef9sT7xgwfEqR6HRyEgvg3/t+f2vHa0pN+duSinvOf9Y0mvgHmjLr20K53DF59ya9PH//+cfv6huv49BTEvwtsfuyfWHbqXet739o5ZcnWi57yieglyNzuFUcIZDWAgy/51emgID5NsTstBfFn2CfI5Lt0oGcV1JTFPTMeLxu1tCBzD7r+KHmzdzUE3TpzClK2CfZOR0H8OaYEARR61KCuKYufu+DPZSKXEmRe98qPALgbwMgkUwpSBv/b01AQf457CbI73DYAkxf1TH+kaPTCgswZs3JCl8JqKByQzoyCFEWffT0F8eeYIQggeLFXMGXJxulri+RQSJC53ctPEHTpNcd+rZlQkCLYzddSEH+OmYLsDvuSQu+UxT0zH3DNxVmQeWNWnohedTcgw7KCUxBX5PbrKIg/R4sgANSr6JLJizZOv88lJydB5nSv/HQXoEeOoaagFMQFd/41FCSfUd4VdkH6Ur/eC0xZ0jP9l3mxcgWZO3rFJFF9W7mDbMEoSB5qt58/9sQzHffC1HuHDwv6+1IcBNGN8aYSNWXxphlrbC1jFWRu96rJAqXlyP1QkFxEvKAiAo6C9JVGQaYs7pmmd2QzP0ZB5oxe+bkuhZ+61omCuJLidbEJFBFEl6VXcNqSTdPvzCpXpiBzu1d8XiC3F6kIBSlCi9fGJFBUkN0jiTpjcc+MO1rL9TZB5o5edZYodWvRClCQosR4fSwCZQTpk0Tki4s3TbstXa69BJnfvfwcha6byhScgpShxjQxCJQVRJdF0Hvuwp6ZP0rKtUeQ+aNXXqAUVpUtMAUpS47pQhPwEaRPEsG0hZumX79bGADzu1fNVFDX+RSUgvjQY9qQBHwF2S2GfGlhz7TlMm/08i9DdV3tW0AK4kuQ6UMRCCFIX1mk92LZ8vyWnhAFG7TPoA8CGBwiFmOQgA8BpdQbb+18K8h3uMrWrVuVT2GYlgSaTICCNLl1WTdvAhTEGyEDNJkABWly67Ju3gQoiDdCBmgyAQrS5NZl3bwJUBBvhAzQZAIUpMmty7p5E6Ag3ggZoMkEKEiTW5d18yZAQbwRMkCTCVCQJrcu6+ZNgIJ4I2SAJhOgIE1uXdbNmwAF8UbIAE0mQEGa3LqsmzcBCuKNkAGaTICCNLl1WTdvAhTEGyEDNJkABWly67Ju3gSiCHLzzTeXKtiIESOg/9OfiRMnlorBRCQQkkAUQWbNmuVdxv333x/jxo3Dcccdh/Hjx3vHY4D2J3DPPff0VeKUU06prDK1FSQhoEXRklQJpTL6zMiJwPr163HLLbdg+/btOPnkkyvtC7UXRBOkJE79qHEXaSG0GFqQ5ENBDM2sJZk9e3afLPw0n4CWYunSpW+raKMF0ZVLf3bs2LHnn/rv6TtFVheYMGECzj777Ob3DtYQDz74YN/o0fpptCALFiywjgBZQ2oakB49dAx+mk+AgljaWG8Tr12b/fve9TSLu1oUpCoClS7S80aQpNJ6JLniiisyGbgKomPoKZueuqWncsmzFj0auYqWNfXT6ZP1kM4rEVrnNXbsWKfnODqd/m/Dhg17ypiVNi//NCgdL+uTt3Yrmy4r71YWRVgn5Uh2rlrroqfZelcz+aTbIYY0tRREV9T0LMU2B0066r333uvEynV3TMva2oGS9ZBpKqBjT5o0KVMUl6lkems7K38Th6xrNYxly5ZZmehnDFncpk6d6iS7KX3rFNm20WK7MZoKH3tN0naC2BpM73rkLfRNd1fb2sYkiO7EWTstSR5ZI6Zpd8ZWrjoLoju1ZmAagVrrZbspUZCcRXoC03RX1j83CVJWjiRPPd3Sd7esT1YH1dfbZMyKZ6uX6Q6pRyo9BWvtgHUYQYrI3lq/rPJTEAdB8qYfWXflvI6XXivY5hmmNZJp2mKLlSVyiCM4SZ51EMRWHxfmrYwoiEWQZMFqm7KYtnlNHTirE2mZ1qxZkzklMG0AuAiSnB1L7vatstl25vRoo9cr+s+EQ3K0oujcu6o1iKk+rWsv27qwtT3Tmx1PP/105gitGemNjOSjz+u5brY4LUxbLqp0DZJVkWTq4DKHzbor62Fed/jW6Y5trVJ0j90mSOtUKung6brapiKmh586jl40m7a7B3IEsdXHtBlgYm5qp6JtVKbzu6SpVBCXApmusa0RkjTJ1q7+t+24fNFjDDZB8naHdFlsOzy29LYpx0AKYho9bDcl09TZNCugIAVs0RA1/BBDqe3ObLqbmwRxPfpSpkMleExpB1IQ04ZI3nMu040i6yZBQRwF8T1ekn5gaJrXJkUpKojrMwKTYHkdyjb6DKQgZdc5ppE7a+1HQXIE0R1Ad9i8J8CtYdILPdcHhnUWJNR0MG8qWORBYcjdONPWfUcK0nqaN+mYyWu2iQxlp1K2nSKXAavoCOIyAuh8TR0qr9PqtKZ1yECNIGW2YvPYZ43EHSmIa4fKA5o1arS+WJMVIzm3o7cJs0aXOgpStKOUnc65jiA+DweLbFkXrXfRPuN6faW7WLEEsT1FT/bN0/vlprtgLEHKLmp1IxbtKGUFcd1IsI0gml+ZT9b3DhStd5l8XdK0vSAmkLZtYdNdsGpBXE4mm+7sRadYeTcnV0FMU0bfzZTWzkpBXPR1uKbMHbMo/LK7Nknxi3bydLWLnBLQ6UyjVZ6Mpnyy1gemPFzWVA5N2ndJ0TZyjVv0urYfQcp0XlOHLTqCuHYI25F42yli2xkz0whSRhDbuiJLkKLPZpJOmbzjo6e7+qPXgqZ3RShIUZUN1xe58+kQZY59lJEwXVzbkXBTR89bDJvS2c5ImWS0nRTIEsS0DrF9sYZN9qwbjan+LicqAnWtvjBtP4KY7phZjZXX6UzwfQWxTRn0z5IDfsk2tz7wmPcMxySIrSO2HorU57zWrVtnfZfD9DDUJmL6Za+8l9hM8fNuZMmjAc0v5nemtb0gtg6Rfh3T5UWqmILkHeMvetczCRL6OYWpA4fIx7awd40fe0Rpe0HKdjzdOK0niIsep3ddgySdP28Ey5LE9GKW7VVTl9dfW/PSImR9zU6ZU9Eusrucr3N5CY6CONC2zfFbkycNk4jV+vOs3Z4QU6wkH9ey5pUz791821H5dJ2TfPSfWV+UkXfeLP21oA5N1XeJixx509Ikr9Dby611aPsRJN3x9JzaNHdvfRfaNIRn3ZFCCqLLaztRnEwLdcfUfy+7m5M393flkSdIUh/NPu8waGueLkLl3VDaUhCXise6JnlhSf+pv4In9htnPvVIpnjJ1xNllbWsIOkbR8Ik+fqjrHxap5vpO3SROqbfyUnnl14PFomXCKj/TDjpv+tFehW/IiPKCFIUAK83E/AVhGz9CFAQP37RU1OQ6IitGVCQgeWfmzsFyUUU9QIKEhWvf3AK4s/QJwIF8aFXQVoKUgFkSxYUZGD55+ZOQXIRRb2AgkTF6x+cgvgz9IlAQXzoVZA2/SUU6ezq/HynAiyVZUFBKkPNjNqRAAVpx1ZjmSsjQEEqQ82M2pGAFuQ3AE5sx8KzzCQQmcBGChKZMMO3LwGl1E2yZcuWK0Xkm+1bDZacBOIQEJHzZNu2bWOUUs/FyYJRSaB9CYjIQaKLv23btnOVUje2b1VYchIIS0CPHiNHjrypTxD94WI9LGBGa2sC940aNepTugZ7BNFTrd7e3nO4HmnrhmXh/QnskWMvQZK4/dOtKwGM8c+LEUigbQhs7J9W3Zcu8Z4RJP0/9WjSL4geVT4pIrmyDB48+FgReVfb4GBBG0tAKfXKzp07H8mroFJqI4CNXV1d948cOXIvMZK0mYLkBc76uVLqUQBHlUnLNCQQmMADIvKJEDFDCvILACeFKBRjkIAngbtE5LOeMfqShxTkul07xjNDFIoxSMCTwFUi8lXPGMEFmQXgmhCFYgwS8CRwvogEea4XcgQ5BkDuwsiz4kxOAi4EDhORv7lcmHdNMEF0Rv1HVnJ3vPIKxZ+TgAeBJ0TkCI/0eyUNLcgiAHNDFY5xSKAEAX34dkGJdJlJQgsyFsCGUIVjHBIoQeBDIrKlRLr4gvRPs64FcGGoAjIOCRQg8H0RubTA9bmXBh1B+gU5AMCT+tdA5ObOC0ggHAE9aujF+SvhQgZ8DpIulFLqLAC3hiwoY5FADoHTROTO0JSCjyBJAZVS3wZwWegCMx4JZBC4XER0fwv+iSZI/3Trh7t+odLFwUvNgCTwfwLfE5GvxwISVZB+Sb4DYH6sCjBuRxP4Vuz3l6IL0i/JeQCWAXhnRzcnKx+KwMsALhKR6OvcSgTpl+RgAHqe+IVQlBinIwn8WK9tRWRzFbWvTJDU4v34/lO/WpTBVVSSebQ9gdcB3AZguYg8VGVtKhckJcpQAJ8BoIU5EsDoXdMw/QyFHxL4B4BNAP4C4HcAfi4iOwcCy4AJMhCVZZ4kUJQABSlKjNd3FAEK0lHNzcoWJUBBihLj9R1FgIJ0VHOzskUJUJCixHh9RxGgIB3V3KxsUQIUpCgxXt9RBChIRzU3K1uUwP8AITVT8Y3dd7MAAAAASUVORK5CYII=;" vertex="1" parent="1">
          <mxGeometry x="180" y="470" width="70" height="70" as="geometry" />
        </mxCell>
        <mxCell id="-8rV1Xqh0MRCDpaFT-4q-19" value="" style="group" vertex="1" connectable="0" parent="1">
          <mxGeometry x="270" y="130" width="282.5" height="430" as="geometry" />
        </mxCell>
        <mxCell id="-8rV1Xqh0MRCDpaFT-4q-5" value="" style="edgeStyle=orthogonalEdgeStyle;rounded=0;orthogonalLoop=1;jettySize=auto;html=1;" edge="1" parent="-8rV1Xqh0MRCDpaFT-4q-19" source="-8rV1Xqh0MRCDpaFT-4q-3" target="-8rV1Xqh0MRCDpaFT-4q-4">
          <mxGeometry relative="1" as="geometry" />
        </mxCell>
        <mxCell id="-8rV1Xqh0MRCDpaFT-4q-3" value="工业文档" style="rounded=1;whiteSpace=wrap;html=1;" vertex="1" parent="-8rV1Xqh0MRCDpaFT-4q-19">
          <mxGeometry x="56.25" width="170" height="60" as="geometry" />
        </mxCell>
        <mxCell id="-8rV1Xqh0MRCDpaFT-4q-13" value="" style="edgeStyle=orthogonalEdgeStyle;rounded=0;orthogonalLoop=1;jettySize=auto;html=1;" edge="1" parent="-8rV1Xqh0MRCDpaFT-4q-19" source="-8rV1Xqh0MRCDpaFT-4q-4" target="-8rV1Xqh0MRCDpaFT-4q-12">
          <mxGeometry relative="1" as="geometry" />
        </mxCell>
        <mxCell id="-8rV1Xqh0MRCDpaFT-4q-4" value="" style="rounded=1;whiteSpace=wrap;html=1;glass=0;fillColor=#dae8fc;strokeColor=#6c8ebf;" vertex="1" parent="-8rV1Xqh0MRCDpaFT-4q-19">
          <mxGeometry y="108" width="282.5" height="180" as="geometry" />
        </mxCell>
        <mxCell id="-8rV1Xqh0MRCDpaFT-4q-15" value="" style="group" vertex="1" connectable="0" parent="-8rV1Xqh0MRCDpaFT-4q-19">
          <mxGeometry x="48" y="122" width="200" height="152" as="geometry" />
        </mxCell>
        <mxCell id="-8rV1Xqh0MRCDpaFT-4q-11" value="" style="edgeStyle=orthogonalEdgeStyle;rounded=0;orthogonalLoop=1;jettySize=auto;html=1;" edge="1" parent="-8rV1Xqh0MRCDpaFT-4q-15" source="-8rV1Xqh0MRCDpaFT-4q-9" target="-8rV1Xqh0MRCDpaFT-4q-10">
          <mxGeometry relative="1" as="geometry" />
        </mxCell>
        <mxCell id="-8rV1Xqh0MRCDpaFT-4q-9" value="转换为MD" style="rounded=1;whiteSpace=wrap;html=1;" vertex="1" parent="-8rV1Xqh0MRCDpaFT-4q-15">
          <mxGeometry width="200" height="60" as="geometry" />
        </mxCell>
        <mxCell id="-8rV1Xqh0MRCDpaFT-4q-7" value="" style="shape=image;verticalLabelPosition=bottom;labelBackgroundColor=default;verticalAlign=top;aspect=fixed;imageAspect=0;image=data:image/png,iVBORw0KGgoAAAANSUhEUgAAALIAAACtCAMAAAAj1NUUAAAAAXNSR0IArs4c6QAAAARnQU1BAACxjwv8YQUAAAJtUExURf///8/Pz3h4eC0tLRUVFQUFBSEhIVFRUaOjo/v7+9/f33l5eRQUFAEBAU5OTrOzs8vLyykpKYODg9XV1T4+PpOTk3FxcS4uLsbGxre3t19fXwsLC8zMzA0NDZeXl97e3uPj44CAgI+Pj7u7u9vb22FhYdfX10FBQZ+fn+Hh4Xt7e+/v74mJiSQkJF1dXcLCwllZWREREWpqapycnAQEBFpaWvLy8ra2th4eHnNzczc3N4yMjNnZ2ff39+np6Q4ODqampiUlJcnJyWRkZObm5oGBgfz8/JaWljExMWlpaWVlZXx8fNjY2IuLi1JSUr6+vjU1NfX19V5eXhoaGrKyssPDwyoqKn9/f6enp1VVVUVFRR0dHevr66+vr7+/v87Ozo6OjkBAQM3NzY2NjSAgIJ6enry8vC8vL1BQUO7u7k1NTRAQEHp6enBwcNzc3A8PDz09Pbq6uj8/P0pKSmtra+3t7X19fSwsLLm5uYqKilxcXExMTDAwMDw8POzs7Ds7Ozo6Ojk5OTg4OCsrKzY2Nurq6gwMDDQ0NDMzMygoKDIyMhYWFpubm8DAwENDQ6urq9TU1IaGhnd3d2BgYFZWVnR0dFhYWJiYmOjo6IeHhyIiIqioqAoKCkhISNbW1ufn5xgYGBMTE729vYWFhVtbW1NTUwkJCdLS0hISEk9PT2JiYpmZmZGRkdDQ0G5ubpSUlG1tbdPT0wgICEJCQh8fHxsbG6WlpWNjYycnJ2xsbFdXVyMjI+Xl5RkZGQcHB3Z2dqGhoaSkpJ2dnbi4uFRUVOTk5AYGBrS0tKKiopqamkRERCYmJsrKyrCwsIKCgm1/vLgAAAAJcEhZcwAADsMAAA7DAcdvqGQAAAf7SURBVHhe7dz/gxRzHMfxPbVdrv34VkrSuTtyaYWriFColC+JVpRc6Qs6V7qEcPmSL1GEfKcjcRIS8p3k6+X7/U1mdp+7n8/szuzMfGb2dpZ5/HT3fn8+73u1zX652dlLxGKxWCwWi8VisWirO2LQ4OSQ+qFH8n3kNQxLiZyjjqYUccccS2BD8jiKkTZ8BHFzjqccZSPJilEnUI+u0UQtqKcRXSeStGDMSXQiayxJpUY6UXUyORXDaFVZ09Dm5pZTbJ4pTiWnYhytqjqtNRdm8HgK0um5jmoCrSpKnzGRMEKceRbFgsF0pNJ/14A7myhZbQ1U8ybRKBg8nE71TJ5ClpxzzqWOqefRyDufRvXUTSNK3gU08o6jjtYLqVfPEUQpaLuIDqbX08iacTHlKrqELFLxC8xLZ9IwTJtMsYpmkUUxm1bBZXPm5jpTJtVRqiabp4rLaSnSQ69oba2/MgqBE4mryKmo/kNCeUcmCSrNoxVZVxNUmk8nssYTtOAaGtF17QKiInMdjQhbeD1hc26gHGmL1F88FtfG2ZWzziSvmDvnMmqRN/5G87Fuycib+L42NDSk+cpVuq69fSlf14K6lta27EE0sviXgUiqaxmXi5vTQjmq0u3jeD0nNdMLLN0Q9n9ZemlzSdysdhYEYQ43/+/aRlIILD/RVhuLdBUND+EWKBs3K8AJgvT8Zu7IUsDzDYWHhnJ0zxwtu3m57XD929m4rw1hSHmtbPBjxUr7uCa9Iy3d7nBfszOXTV6tmLdgFVvt3cJCz9wP3iL+It96G9ucrWapJ77jmvxE7ii8+ipjFYtdpZd6ua/Z8BG543b2lNXJ6vLSN+vFNfmIvIYt5XmJnF6rndfgPfId69hSorNrwil86SlyejVr9XiPPIwdVp1da9Z3GAcN33qJ3HEnSzV5j7yBHdK6QXetvzvXvJuSl8j3sFKX98hL2IGNk+4lrslH5I5OVuryHpkNpo2XNypxTTLyOiqO7mOhNp3Il1JR+Ih8Pwu16USmoPIRuZuF2jYxyB0bDBRUPiI/wEJtIUV+kNZ/M/JDLNR2G4PcscFAQVXTkWdQcfQwC7XVYORRDHLHBgMFlY/Im1morQYjD2KQOzYYKKhuouUh8iMs1FaDkTcyyB0bDBRUNR15LBVHxRc2+FaDkR9lkDs2GCiofER+jIXaQor8OK3/ZuRrWKjtega5Y4OBggUtAwVHkYm8hZ4Qj1Nx8gTrtB3LIHdsMFCwkJcLLaTiZAAjy9uRgoU8Pex2UvxJ1mnbyiB3Y9hhH1n+3ryGipOqRJ5ORSWvebyfipNtrNP2GIPcPcUO+8hP0xNiBBUngSN7v0RGvveynYpqOz0htlBx4v1NEQfPMMjdIHYI8SwV1XR6hucoOQgc2ftnCeTvbDuoWMjj5nkqDjaxTNsLDHL3IjuEeImKxcs0hXiAioPAke9hkDt54ehMKhav0BRiDBUH7m9qufD+Nt0cdgixmYrFqzQNr1Gy9zqrtLk9vUo72SFEDxUreQH9G1TsyYNe05sMcreLHYZXKVkspul2ZLBI21vM8WI3e4TYScXibZqGdyjZWcoabd7PiCcS8iN49teK5D9TKESKih15N9XUyyAv5PXx9s/y79I1vE3Jxkss0fY0g7w4nj1C7KFipRzs0yjZCHx+y+XJ1UKJZP8RBHmwi/colZKHj57XmePNXnY5XcEwm67B8QWifHTX5PLcWuR9djkdGerN7PRx0w/oa/uQQd7sY5fhI0pWzXQNuykVC3pc+DqUDXvYJsRyKla75KEj9lOz+piutiEM8kq+xe9wZHxC22T7HxH4VNEVDPKqhX0Gh1eAys28l5JKXrah61MmeXaAjUJkqBRRDnfxPjXFZ7S0fc4g77rYaVhGqcgXtE37qBV8SUPfV0zybgU7DV2UitTRNu25l2Le1zS09exikg/K5R8ON7N6IcAe60/4hrK+Mi8EHCkXGDm9yZmhb/qCWladfIzUtYhRviiXcY2mVGQZ7Sz1Xhr4nIuPE4iqb9lt+I5SMcv1dDJzycd+/dP7oxMH2W0q/pBsnuV36O9n5YoT+D6AJblJvsnTGeIQpRLfsyCrM3sAjZYP6dp0P0p1cAYDDE5vzc46xIKsAyvDSfw10/37gQkmp+vYp9LHyz+GkFj8xHANys186CC1YiUfQgxuG6N1/MwMk+PVyqFnPvALk7Wony/8lVqJsDP7ORdQqu8wY0y2p0FNt7AgHBkeK3XtYE7WBxRL/GZ53Ajod4Zq28qgLMc3AtTHw4A2MFJfn3wT0JCyPa1/cHLpHxPR9VbAw8L0B7OwtfisU9/kP9UDPqBDUxkbiDynkZNanU/dd/SO+lSIeQ0hfXz/L8YptqRSqS3hhs0qf4rduybll+nK2uz0FOtbk3yHuKKeCi1xItHOzMoKM/HAZB57DD8sJIHfRHB1OOTEiUQjkysl7NvYVNljI/U3PyZU7T2Mr4DKJDYe64J8Dq6sJX38iPDJP7MWquWVSxzC53FsJNcyvELCP6D3/sPoimkKfF2I1YgmBldSLz8sDG39DK2w0G7oZNdA3MQ5jaEc0Zkw/v6Fd8GPjjb7twsrKVjont6BOyYUvdqHR6Y6gU29Wk/hmcaqBTY1+n30SHYP7J3OVr/31Mmu9qrewIr+bvcjJJnpjkxe9HdnSv8QInomRi5uQf/+7k2ZTE8uezLZ0zZxU/f+yKaNxWKxWCwWi8Visf+FROJfrJ3bMeQl5ZUAAAAASUVORK5CYII=;" vertex="1" parent="-8rV1Xqh0MRCDpaFT-4q-15">
          <mxGeometry x="10" y="8.5" width="44.24" height="43" as="geometry" />
        </mxCell>
        <mxCell id="-8rV1Xqh0MRCDpaFT-4q-10" value="OCR识别图片并嵌入" style="rounded=1;whiteSpace=wrap;html=1;" vertex="1" parent="-8rV1Xqh0MRCDpaFT-4q-15">
          <mxGeometry x="30" y="92" width="140" height="60" as="geometry" />
        </mxCell>
        <mxCell id="-8rV1Xqh0MRCDpaFT-4q-16" value="" style="group" vertex="1" connectable="0" parent="-8rV1Xqh0MRCDpaFT-4q-19">
          <mxGeometry x="2.3100000000000023" y="340" width="277.88" height="90" as="geometry" />
        </mxCell>
        <mxCell id="-8rV1Xqh0MRCDpaFT-4q-12" value="GraphRAG 建立索引&lt;div&gt;得到.parquet&lt;/div&gt;" style="rounded=1;whiteSpace=wrap;html=1;" vertex="1" parent="-8rV1Xqh0MRCDpaFT-4q-16">
          <mxGeometry width="277.88" height="90" as="geometry" />
        </mxCell>
        <mxCell id="-8rV1Xqh0MRCDpaFT-4q-14" value="" style="shape=image;verticalLabelPosition=bottom;labelBackgroundColor=default;verticalAlign=top;aspect=fixed;imageAspect=0;image=data:image/png,iVBORw0KGgoAAAANSUhEUgAAAMgAAADICAYAAACtWK6eAAAAAXNSR0IArs4c6QAACLdJREFUeF7tnIFt2zgARZVJ2k3aTa7dQBvcCtogd5Oko3SUgw424ASxK4uP4if1DBQtUPmTfJ8PkmIrL5MvCUjgLoEX2UhAAvcJKIi7QwIPCCiI20MCCuIekMA+Ap5B9nHzXSchoCAnKdpl7iOgIPu4+a6TEFCQkxTtMvcRUJB93HzXSQgoyEmKdpn7CCjIPm6+6yQEFOQkRbvM9wTmef4+TdPXaZp+Lcvy+x4fBXHnDEvgRoIvFxlWIa5/ruv+uSzLPwoy7DY498I+kWA9M6yvVYQtLwXZQsljMgnM87xu9Oum/3aZ5fXyiJi0ghAUzahH4AAJHk1eQepVa/JWAjeXQutb1jPBZ/cDW+PI4xSEpGnWfQLA/UALvArSgvqoY3YqgZdYo27Io9fV+H7g6OWu43kGaUE9ecwTSuAZJHlDtpjbxg/JWkwtbUzPIGmNUPMZ8H6AQvNMjoI8QyvtWCWo3oiCVEdcMID3AwXwmLcqCMORS7lI8fbE94W4wU36SEBB0vbE5bJpFcRXewIK0r6D9zNQkKhGFOSZOh7dFC/Lgjw/oyDPNFL9WAX5iPiTG+NNX5xTkOqbtcUA5xXk5myAPEegIC32b/UxxxbkyM8JFKT6Zm0xQP+CpHxWoCAt9m/1MfsR5M7ZYOuzxdVJKkh1xC0GyBLk5mxw/U0Tzz5k3wLi/2MqSDP0NQduI8g8zz8uq0JukGsS2pqtIFtJdXVcPUHSL4nomhSEJhqRVyZIz5dENH4FoYlG5O0X5HKZ9BqxjIBJKEhACfwUFIRiqiAUyagcBaHqUBCKZFSOglB1KAhFMipHQag6FIQiGZWjIFQdCkKRjMpREKoOBaFIRuUoCFWHglAko3IUhKpDQSiSUTkKQtWhIBTJqBwFoepQEIpkVI6CUHUoCEUyKkdBqDoUhCIZlaMgVB0KQpGMylEQqg4FoUhG5SgIVYeCUCSjchSEqkNBKJJROQpC1aEgFMmoHAWh6lAQimRUjoJQdSgIRTIqR0GoOhSEIhmVoyBUHQpCkYzKURCqDgWhSEblKAhVh4JQJKNyFISqQ0EoklE5CkLVoSAUyagcBaHqUBCKZFSOglB1KAhFMipHQag6FIQiGZWjIFQdCkKRjMpREKoOBaFIRuUoCFWHglAko3IUhKpDQSiSUTkKQtWhIBTJqBwFoepQEIpkVI6CUHUoCEUyKkdBqDoUhCIZlaMgVB0KQpGMylEQqg4FoUhG5SgIVYeCUCSjchSEqkNBKJJROQpC1aEgFMmoHAWh6lAQimRUjoJQdSgIRTIqR0GoOhSEIhmVoyBUHQpCkYzKURCqDgWhSEblKAhVh4JQJKNyFISqQ0EoklE5CkLVoSAUyagcBaHqUBCKZFROkSDfp2n6K2o5DSezLMtPYvh5nr9O0/Q3kWVGMYF/l2X5dS/lpTjeAAkMTEBBBi7XpZUTUJByhiYMTEBBBi7XpZUTUJByhiYMTEBBBi7XpZUTUJByhiYMTEBBBi7XpZUTUJByhiYMTEBBBi7XpZUTUJByhiYMTEBBBi7XpZUTUJByhiYMTEBBBi7XpZUTUJByhiYMTEBBBi7XpZUTUJByhiYMTEBBBi7XpZUTeCjIPM8+cnvD2EduyzdcYML+R27nef4xTdNr4KKaTMlf2tAEe+1Bi35pg4K8P4Mgl6SXM/Nb7ebN30RAQTZh2nCQZ5ANkPo7REGozhSEIhmVoyBUHQpCkYzKURCqDgWhSEblKAhVh4JQJKNyFISqQ0EoklE5CkLVoSAUyagcBaHqUBCKZFSOglB1KAhFMipHQag6FIQiGZWjIFQdCkKRjMpREKoOBaFIRuUoCFWHglAko3IUhKpDQSiSUTkKQtWhIBTJqBwFoepQEIpkVI6CUHUoCEUyKkdBqDoUhCIZlaMgVB0KQpGMylEQqg4FoUhG5SgIVYeCUCSjchSEqkNBKJJROQpC1aEgFMmoHAWh6lAQimRUjoJQdSgIRTIqR0GoOhSEIhmVoyBUHQpCkYzKURCqDgWhSEblKAhVh4JQJKNyFISqQ0EoklE5CkLVoSAUyagcBaHqUBCKZFSOglB1KAhFMipHQag6FIQiGZWjIFQdCkKRjMpREKoOBaFIRuUoCFWHglAko3IUhKpDQSiSUTkKQtWhIBTJqBwFoepQEIpkVI6CUHUoCEUyKkdBqDoUhCIZlaMgVB0KQpGMylEQqg4FoUhG5SgIVYeCUCSjchSEqkNBKJJROQpC1aEgFMmoHAWh6lAQimRUjoJQdSgIRTIqZ78g6zLmef5+Wc63aZq+fvgTtdLak1GQ2oSb5JcJ8mjKF3lWab5M07SKtP57fV3/brLiWoMqSC2yTXPrCXJvWfM8X88061lnfV3l6VocBWm6kWsNfrwgG8466yGrPNfLt6tQtSAguQqCYEwLyRJkw1kn9pJNQdL2NjKfPgT5w1kn4pJNQZANmRbSvyApl2wKkra3kfmMLciRl2wKgmzItJBzCvLEWWfzZzsKkra3kfkoyDMYP3ww+u6nbAryDMlujlUQoqr1s51lWX5DWat4b0SWGcUEFKQYIRxwOUspCMx1Z5yC7ARX7W0XQV5H/UpONXB1ghWkDlcm9cHXctYBuv5qDkOoeoqCVEdcaYAbeWK/XVBp6UfGKsiRtI8a644817OOZ57tRSjIdlbjHOlzPJu7VJDNqE5y4Ad51lUP/yzPg2oV5CT7HlnmCe97FATZOYasj1/ffi3n+hRp7/c9CuLerk/gRp51sJ4ehlOQ+tvDEf5EIPiHBgryp/L8/7YEGv/QQEHa1u/oJQQO+KGBgpQU5HtzCUA/NFCQ3IqdWU0CG+97FKRmCWb3SeBGnt+PnvN56XN5zloCxxBQkGM4O0qnBBSk0+Kc9jEEFOQYzo7SKQEF6bQ4p30MAQU5hrOjdEpAQTotzmkfQ0BBjuHsKJ0SUJBOi3PaxxBQkGM4O0qnBBSk0+Kc9jEEFOQYzo7SKYH/AFgmCxSQFRRzAAAAAElFTkSuQmCC;" vertex="1" parent="-8rV1Xqh0MRCDpaFT-4q-16">
          <mxGeometry x="23.939999999999998" y="25" width="40" height="40" as="geometry" />
        </mxCell>
      </root>
    </mxGraphModel>
  </diagram>
</mxfile>
